<svg width="270" height="152" viewBox="0 0 270 152" fill="none" xmlns="http://www.w3.org/2000/svg">
<g filter="url(#filter0_dddd_3119_2215)">
<rect x="40.3" y="8.19995" width="79.2" height="79.2" rx="39.6" fill="white"/>
<path d="M87.4796 48.7305C87.0908 50.2078 85.2533 51.2517 81.5782 53.3396C78.0256 55.3579 76.2493 56.3672 74.8178 55.9615C74.2259 55.7937 73.6867 55.4753 73.2518 55.0365C72.2 53.9752 72.2 51.9168 72.2 47.7999C72.2 43.6831 72.2 41.6246 73.2518 40.5634C73.6867 40.1246 74.2259 39.8061 74.8178 39.6384C76.2493 39.2327 78.0256 40.2419 81.5782 42.2603C85.2533 44.3481 87.0908 45.392 87.4796 46.8693C87.6401 47.4792 87.6401 48.1207 87.4796 48.7305Z" stroke="black" stroke-width="1.65" stroke-linejoin="round"/>
</g>
<path d="M138.103 53.7999L132.682 41.4799H134.583L139.564 52.8495H138.473L143.489 41.4799H145.249L139.846 53.7999H138.103ZM148.421 46.7951H154.757V48.2911H148.421V46.7951ZM148.58 52.2687H155.761V53.7999H146.82V41.4799H155.514V43.0111H148.58V52.2687ZM160.194 53.9407C159.467 53.9407 158.786 53.7882 158.153 53.4831C157.519 53.1781 157.003 52.7381 156.604 52.1631L157.625 50.9663C157.965 51.4357 158.346 51.7994 158.769 52.0575C159.203 52.3039 159.678 52.4271 160.194 52.4271C161.602 52.4271 162.306 51.5941 162.306 49.9279V43.0111H157.854V41.4799H164.049V49.8399C164.049 51.2127 163.72 52.2394 163.063 52.9199C162.418 53.6005 161.462 53.9407 160.194 53.9407ZM165.51 53.7999L171.09 41.4799H172.832L178.429 53.7999H176.581L171.6 42.4655H172.304L167.323 53.7999H165.51ZM167.886 50.7199L168.362 49.3119H175.296L175.806 50.7199H167.886ZM186.595 46.7951H192.931V48.2911H186.595V46.7951ZM186.753 52.2687H193.934V53.7999H184.993V41.4799H193.688V43.0111H186.753V52.2687ZM196.784 53.7999V41.4799H198.227L203.753 50.7903H202.979L208.435 41.4799H209.878L209.896 53.7999H208.206L208.189 44.1375H208.593L203.736 52.3039H202.926L198.033 44.1375H198.473V53.7999H196.784ZM216.454 53.7999L222.033 41.4799H223.776L229.373 53.7999H227.525L222.544 42.4655H223.248L218.267 53.7999H216.454ZM218.83 50.7199L219.305 49.3119H226.24L226.75 50.7199H218.83ZM236.547 53.9407C235.609 53.9407 234.74 53.7882 233.943 53.4831C233.156 53.1663 232.47 52.7263 231.883 52.1631C231.308 51.5882 230.857 50.9194 230.528 50.1567C230.2 49.3941 230.035 48.5551 230.035 47.6399C230.035 46.7247 230.2 45.8858 230.528 45.1231C230.857 44.3605 231.314 43.6975 231.901 43.1343C232.488 42.5594 233.174 42.1194 233.96 41.8143C234.758 41.4975 235.626 41.3391 236.565 41.3391C237.515 41.3391 238.39 41.5034 239.187 41.8319C239.997 42.1487 240.683 42.6239 241.247 43.2575L240.103 44.3663C239.633 43.8735 239.105 43.5098 238.519 43.2751C237.932 43.0287 237.304 42.9055 236.635 42.9055C235.943 42.9055 235.298 43.0229 234.699 43.2575C234.113 43.4922 233.602 43.8207 233.168 44.2431C232.734 44.6655 232.394 45.1701 232.147 45.7567C231.913 46.3317 231.795 46.9594 231.795 47.6399C231.795 48.3205 231.913 48.9541 232.147 49.5407C232.394 50.1157 232.734 50.6143 233.168 51.0367C233.602 51.4591 234.113 51.7877 234.699 52.0223C235.298 52.257 235.943 52.3743 236.635 52.3743C237.304 52.3743 237.932 52.257 238.519 52.0223C239.105 51.7759 239.633 51.4005 240.103 50.8959L241.247 52.0047C240.683 52.6383 239.997 53.1194 239.187 53.4479C238.39 53.7765 237.51 53.9407 236.547 53.9407ZM235.826 57.7423C235.521 57.7423 235.239 57.7071 234.981 57.6367C234.723 57.5781 234.482 57.4842 234.259 57.3551L234.629 56.4927C234.817 56.5983 235.004 56.6746 235.192 56.7215C235.392 56.7685 235.603 56.7919 235.826 56.7919C236.166 56.7919 236.412 56.7274 236.565 56.5983C236.729 56.481 236.811 56.3109 236.811 56.0879C236.811 55.8767 236.729 55.7066 236.565 55.5775C236.412 55.4602 236.16 55.4015 235.808 55.4015H235.333L235.773 53.6767H236.741L236.477 54.6799C236.982 54.7269 237.363 54.8853 237.621 55.1551C237.879 55.425 238.008 55.7535 238.008 56.1407C238.008 56.6335 237.809 57.0207 237.41 57.3023C237.011 57.5957 236.483 57.7423 235.826 57.7423ZM241.6 53.7999L247.179 41.4799H248.921L254.518 53.7999H252.67L247.689 42.4655H248.393L243.412 53.7999H241.6ZM243.976 50.7199L244.451 49.3119H251.385L251.896 50.7199H243.976ZM249.291 40.4239C249.009 40.4239 248.757 40.3653 248.534 40.2479C248.323 40.1306 248.129 39.9957 247.953 39.8431C247.777 39.6789 247.607 39.5381 247.443 39.4207C247.278 39.3034 247.114 39.2447 246.95 39.2447C246.692 39.2447 246.481 39.3445 246.316 39.5439C246.164 39.7317 246.076 39.9957 246.052 40.3359H245.102C245.125 39.6789 245.29 39.1567 245.595 38.7695C245.9 38.3823 246.31 38.1887 246.827 38.1887C247.108 38.1887 247.361 38.2533 247.584 38.3823C247.806 38.4997 248.006 38.6405 248.182 38.8047C248.358 38.9573 248.522 39.0922 248.675 39.2095C248.839 39.3269 249.003 39.3855 249.168 39.3855C249.426 39.3855 249.637 39.2917 249.801 39.1039C249.965 38.9162 250.053 38.6581 250.065 38.3295H251.016C251.004 38.9514 250.84 39.4559 250.523 39.8431C250.218 40.2303 249.807 40.4239 249.291 40.4239ZM261.745 53.9407C260.807 53.9407 259.933 53.7823 259.123 53.4655C258.325 53.1487 257.633 52.7087 257.046 52.1455C256.46 51.5706 256.002 50.9018 255.673 50.1391C255.345 49.3765 255.181 48.5434 255.181 47.6399C255.181 46.7365 255.345 45.9034 255.673 45.1407C256.002 44.3781 256.46 43.7151 257.046 43.1519C257.633 42.577 258.325 42.1311 259.123 41.8143C259.921 41.4975 260.795 41.3391 261.745 41.3391C262.684 41.3391 263.547 41.4975 264.333 41.8143C265.131 42.1194 265.823 42.5594 266.409 43.1343C267.008 43.6975 267.465 44.3605 267.782 45.1231C268.111 45.8858 268.275 46.7247 268.275 47.6399C268.275 48.5551 268.111 49.3941 267.782 50.1567C267.465 50.9194 267.008 51.5882 266.409 52.1631C265.823 52.7263 265.131 53.1663 264.333 53.4831C263.547 53.7882 262.684 53.9407 261.745 53.9407ZM261.745 52.3743C262.426 52.3743 263.054 52.257 263.629 52.0223C264.215 51.7877 264.72 51.4591 265.142 51.0367C265.576 50.6026 265.911 50.0981 266.145 49.5231C266.392 48.9482 266.515 48.3205 266.515 47.6399C266.515 46.9594 266.392 46.3317 266.145 45.7567C265.911 45.1818 265.576 44.6831 265.142 44.2607C264.72 43.8266 264.215 43.4922 263.629 43.2575C263.054 43.0229 262.426 42.9055 261.745 42.9055C261.053 42.9055 260.414 43.0229 259.827 43.2575C259.252 43.4922 258.748 43.8266 258.313 44.2607C257.879 44.6831 257.539 45.1818 257.293 45.7567C257.058 46.3317 256.941 46.9594 256.941 47.6399C256.941 48.3205 257.058 48.9482 257.293 49.5231C257.539 50.0981 257.879 50.6026 258.313 51.0367C258.748 51.4591 259.252 51.7877 259.827 52.0223C260.414 52.257 261.053 52.3743 261.745 52.3743Z" fill="black"/>
<defs>
<filter id="filter0_dddd_3119_2215" x="0.300049" y="0.199951" width="159.2" height="227.2" filterUnits="userSpaceOnUse" color-interpolation-filters="sRGB">
<feFlood flood-opacity="0" result="BackgroundImageFix"/>
<feColorMatrix in="SourceAlpha" type="matrix" values="0 0 0 0 0 0 0 0 0 0 0 0 0 0 0 0 0 0 127 0" result="hardAlpha"/>
<feOffset dy="6"/>
<feGaussianBlur stdDeviation="7"/>
<feColorMatrix type="matrix" values="0 0 0 0 0 0 0 0 0 0 0 0 0 0 0 0 0 0 0.1 0"/>
<feBlend mode="normal" in2="BackgroundImageFix" result="effect1_dropShadow_3119_2215"/>
<feColorMatrix in="SourceAlpha" type="matrix" values="0 0 0 0 0 0 0 0 0 0 0 0 0 0 0 0 0 0 127 0" result="hardAlpha"/>
<feOffset dy="25"/>
<feGaussianBlur stdDeviation="12.5"/>
<feColorMatrix type="matrix" values="0 0 0 0 0 0 0 0 0 0 0 0 0 0 0 0 0 0 0.09 0"/>
<feBlend mode="normal" in2="effect1_dropShadow_3119_2215" result="effect2_dropShadow_3119_2215"/>
<feColorMatrix in="SourceAlpha" type="matrix" values="0 0 0 0 0 0 0 0 0 0 0 0 0 0 0 0 0 0 127 0" result="hardAlpha"/>
<feOffset dy="56"/>
<feGaussianBlur stdDeviation="17"/>
<feColorMatrix type="matrix" values="0 0 0 0 0 0 0 0 0 0 0 0 0 0 0 0 0 0 0.05 0"/>
<feBlend mode="normal" in2="effect2_dropShadow_3119_2215" result="effect3_dropShadow_3119_2215"/>
<feColorMatrix in="SourceAlpha" type="matrix" values="0 0 0 0 0 0 0 0 0 0 0 0 0 0 0 0 0 0 127 0" result="hardAlpha"/>
<feOffset dy="100"/>
<feGaussianBlur stdDeviation="20"/>
<feColorMatrix type="matrix" values="0 0 0 0 0 0 0 0 0 0 0 0 0 0 0 0 0 0 0.01 0"/>
<feBlend mode="normal" in2="effect3_dropShadow_3119_2215" result="effect4_dropShadow_3119_2215"/>
<feBlend mode="normal" in="SourceGraphic" in2="effect4_dropShadow_3119_2215" result="shape"/>
</filter>
</defs>
</svg>
