<svg width="225" height="127" viewBox="0 0 225 127" fill="none" xmlns="http://www.w3.org/2000/svg">
<g filter="url(#filter0_dddd_3119_2213)">
<rect x="15.5" y="3.19995" width="72" height="72" rx="36" fill="white"/>
<path d="M58.3906 40.046C58.0371 41.389 56.3667 42.338 53.0257 44.2361C49.796 46.0709 48.1812 46.9884 46.8798 46.6196C46.3418 46.4671 45.8516 46.1776 45.4562 45.7787C44.5 44.8139 44.5 42.9426 44.5 39.2C44.5 35.4574 44.5 33.5861 45.4562 32.6213C45.8516 32.2224 46.3418 31.9328 46.8798 31.7804C48.1812 31.4116 49.796 32.329 53.0257 34.1639C56.3667 36.0619 58.0371 37.011 58.3906 38.354C58.5365 38.9084 58.5365 39.4916 58.3906 40.046Z" stroke="black" stroke-width="1.5" stroke-linejoin="round"/>
</g>
<path d="M104.412 45.2L99.484 34H101.212L105.74 44.336H104.748L109.308 34H110.908L105.996 45.2H104.412ZM113.792 38.832H119.552V40.192H113.792V38.832ZM113.936 43.808H120.464V45.2H112.336V34H120.24V35.392H113.936V43.808ZM124.495 45.328C123.834 45.328 123.215 45.1893 122.639 44.912C122.063 44.6346 121.594 44.2346 121.231 43.712L122.159 42.624C122.468 43.0506 122.815 43.3813 123.199 43.616C123.594 43.84 124.026 43.952 124.495 43.952C125.775 43.952 126.415 43.1946 126.415 41.68V35.392H122.367V34H127.999V41.6C127.999 42.848 127.7 43.7813 127.103 44.4C126.516 45.0186 125.647 45.328 124.495 45.328ZM129.328 45.2L134.4 34H135.984L141.072 45.2H139.392L134.864 34.896H135.504L130.976 45.2H129.328ZM131.488 42.4L131.92 41.12H138.224L138.688 42.4H131.488ZM148.495 38.832H154.255V40.192H148.495V38.832ZM148.639 43.808H155.167V45.2H147.039V34H154.943V35.392H148.639V43.808ZM157.758 45.2V34H159.07L164.094 42.464H163.39L168.35 34H169.662L169.678 45.2H168.142L168.126 36.416H168.494L164.078 43.84H163.342L158.894 36.416H159.294V45.2H157.758ZM175.64 45.2L180.712 34H182.296L187.384 45.2H185.704L181.176 34.896H181.816L177.288 45.2H175.64ZM177.8 42.4L178.232 41.12H184.536L185 42.4H177.8ZM193.907 45.328C193.053 45.328 192.264 45.1893 191.539 44.912C190.824 44.624 190.2 44.224 189.667 43.712C189.144 43.1893 188.733 42.5813 188.435 41.888C188.136 41.1946 187.987 40.432 187.987 39.6C187.987 38.768 188.136 38.0053 188.435 37.312C188.733 36.6186 189.149 36.016 189.683 35.504C190.216 34.9813 190.84 34.5813 191.555 34.304C192.28 34.016 193.069 33.872 193.923 33.872C194.787 33.872 195.581 34.0213 196.307 34.32C197.043 34.608 197.667 35.04 198.179 35.616L197.139 36.624C196.712 36.176 196.232 35.8453 195.699 35.632C195.165 35.408 194.595 35.296 193.987 35.296C193.357 35.296 192.771 35.4026 192.227 35.616C191.693 35.8293 191.229 36.128 190.835 36.512C190.44 36.896 190.131 37.3546 189.907 37.888C189.693 38.4106 189.587 38.9813 189.587 39.6C189.587 40.2186 189.693 40.7946 189.907 41.328C190.131 41.8506 190.44 42.304 190.835 42.688C191.229 43.072 191.693 43.3706 192.227 43.584C192.771 43.7973 193.357 43.904 193.987 43.904C194.595 43.904 195.165 43.7973 195.699 43.584C196.232 43.36 196.712 43.0186 197.139 42.56L198.179 43.568C197.667 44.144 197.043 44.5813 196.307 44.88C195.581 45.1786 194.781 45.328 193.907 45.328ZM193.251 48.784C192.973 48.784 192.717 48.752 192.483 48.688C192.248 48.6346 192.029 48.5493 191.827 48.432L192.163 47.648C192.333 47.744 192.504 47.8133 192.675 47.856C192.856 47.8986 193.048 47.92 193.251 47.92C193.56 47.92 193.784 47.8613 193.923 47.744C194.072 47.6373 194.147 47.4826 194.147 47.28C194.147 47.088 194.072 46.9333 193.923 46.816C193.784 46.7093 193.555 46.656 193.235 46.656H192.803L193.203 45.088H194.083L193.843 46C194.301 46.0426 194.648 46.1866 194.883 46.432C195.117 46.6773 195.235 46.976 195.235 47.328C195.235 47.776 195.053 48.128 194.691 48.384C194.328 48.6506 193.848 48.784 193.251 48.784ZM198.5 45.2L203.572 34H205.156L210.244 45.2H208.564L204.036 34.896H204.676L200.148 45.2H198.5ZM200.66 42.4L201.092 41.12H207.396L207.86 42.4H200.66ZM205.492 33.04C205.236 33.04 205.006 32.9866 204.804 32.88C204.612 32.7733 204.436 32.6506 204.276 32.512C204.116 32.3626 203.961 32.2346 203.812 32.128C203.662 32.0213 203.513 31.968 203.364 31.968C203.129 31.968 202.937 32.0586 202.788 32.24C202.649 32.4106 202.569 32.6506 202.548 32.96H201.684C201.705 32.3626 201.854 31.888 202.132 31.536C202.409 31.184 202.782 31.008 203.252 31.008C203.508 31.008 203.737 31.0666 203.94 31.184C204.142 31.2906 204.324 31.4186 204.484 31.568C204.644 31.7066 204.793 31.8293 204.932 31.936C205.081 32.0426 205.23 32.096 205.38 32.096C205.614 32.096 205.806 32.0106 205.956 31.84C206.105 31.6693 206.185 31.4346 206.196 31.136H207.06C207.049 31.7013 206.9 32.16 206.612 32.512C206.334 32.864 205.961 33.04 205.492 33.04ZM216.814 45.328C215.961 45.328 215.166 45.184 214.43 44.896C213.705 44.608 213.075 44.208 212.542 43.696C212.009 43.1733 211.593 42.5653 211.294 41.872C210.995 41.1786 210.846 40.4213 210.846 39.6C210.846 38.7786 210.995 38.0213 211.294 37.328C211.593 36.6346 212.009 36.032 212.542 35.52C213.075 34.9973 213.705 34.592 214.43 34.304C215.155 34.016 215.95 33.872 216.814 33.872C217.667 33.872 218.451 34.016 219.166 34.304C219.891 34.5813 220.521 34.9813 221.054 35.504C221.598 36.016 222.014 36.6186 222.302 37.312C222.601 38.0053 222.75 38.768 222.75 39.6C222.75 40.432 222.601 41.1946 222.302 41.888C222.014 42.5813 221.598 43.1893 221.054 43.712C220.521 44.224 219.891 44.624 219.166 44.912C218.451 45.1893 217.667 45.328 216.814 45.328ZM216.814 43.904C217.433 43.904 218.003 43.7973 218.526 43.584C219.059 43.3706 219.518 43.072 219.902 42.688C220.297 42.2933 220.601 41.8346 220.814 41.312C221.038 40.7893 221.15 40.2186 221.15 39.6C221.15 38.9813 221.038 38.4106 220.814 37.888C220.601 37.3653 220.297 36.912 219.902 36.528C219.518 36.1333 219.059 35.8293 218.526 35.616C218.003 35.4026 217.433 35.296 216.814 35.296C216.185 35.296 215.603 35.4026 215.07 35.616C214.547 35.8293 214.089 36.1333 213.694 36.528C213.299 36.912 212.99 37.3653 212.766 37.888C212.553 38.4106 212.446 38.9813 212.446 39.6C212.446 40.2186 212.553 40.7893 212.766 41.312C212.99 41.8346 213.299 42.2933 213.694 42.688C214.089 43.072 214.547 43.3706 215.07 43.584C215.603 43.7973 216.185 43.904 216.814 43.904Z" fill="black"/>
<defs>
<filter id="filter0_dddd_3119_2213" x="0.5" y="0.199951" width="102" height="126" filterUnits="userSpaceOnUse" color-interpolation-filters="sRGB">
<feFlood flood-opacity="0" result="BackgroundImageFix"/>
<feColorMatrix in="SourceAlpha" type="matrix" values="0 0 0 0 0 0 0 0 0 0 0 0 0 0 0 0 0 0 127 0" result="hardAlpha"/>
<feOffset dy="2"/>
<feGaussianBlur stdDeviation="2.5"/>
<feColorMatrix type="matrix" values="0 0 0 0 0 0 0 0 0 0 0 0 0 0 0 0 0 0 0.1 0"/>
<feBlend mode="normal" in2="BackgroundImageFix" result="effect1_dropShadow_3119_2213"/>
<feColorMatrix in="SourceAlpha" type="matrix" values="0 0 0 0 0 0 0 0 0 0 0 0 0 0 0 0 0 0 127 0" result="hardAlpha"/>
<feOffset dy="9"/>
<feGaussianBlur stdDeviation="4.5"/>
<feColorMatrix type="matrix" values="0 0 0 0 0 0 0 0 0 0 0 0 0 0 0 0 0 0 0.09 0"/>
<feBlend mode="normal" in2="effect1_dropShadow_3119_2213" result="effect2_dropShadow_3119_2213"/>
<feColorMatrix in="SourceAlpha" type="matrix" values="0 0 0 0 0 0 0 0 0 0 0 0 0 0 0 0 0 0 127 0" result="hardAlpha"/>
<feOffset dy="20"/>
<feGaussianBlur stdDeviation="6"/>
<feColorMatrix type="matrix" values="0 0 0 0 0 0 0 0 0 0 0 0 0 0 0 0 0 0 0.05 0"/>
<feBlend mode="normal" in2="effect2_dropShadow_3119_2213" result="effect3_dropShadow_3119_2213"/>
<feColorMatrix in="SourceAlpha" type="matrix" values="0 0 0 0 0 0 0 0 0 0 0 0 0 0 0 0 0 0 127 0" result="hardAlpha"/>
<feOffset dy="36"/>
<feGaussianBlur stdDeviation="7.5"/>
<feColorMatrix type="matrix" values="0 0 0 0 0 0 0 0 0 0 0 0 0 0 0 0 0 0 0.01 0"/>
<feBlend mode="normal" in2="effect3_dropShadow_3119_2213" result="effect4_dropShadow_3119_2213"/>
<feBlend mode="normal" in="SourceGraphic" in2="effect4_dropShadow_3119_2213" result="shape"/>
</filter>
</defs>
</svg>
