<svg width="314" height="126" viewBox="0 0 314 126" fill="none" xmlns="http://www.w3.org/2000/svg">
<g filter="url(#filter0_dddd_3119_2119)">
<rect x="15" y="3" width="284" height="72" rx="36" fill="#FFCD1E"/>
<path d="M70.5 34.5V33.3636C70.5 30.9537 72.5147 29 75 29C77.4853 29 79.5 30.9537 79.5 33.3636V34.5" stroke="black" stroke-width="1.5"/>
<path d="M65.7035 45.6124C65.1972 44.3029 65.6815 42.6144 66.6501 39.2373L68 34.5H82L83.3499 39.2373C84.3185 42.6144 84.8028 44.3029 84.2965 45.6124C83.9864 46.4143 83.4358 47.1097 82.7145 47.6104C79.9865 49.5043 69.8944 49.4216 67.2855 47.6104C66.5642 47.1097 66.0136 46.4143 65.7035 45.6124Z" stroke="black" stroke-width="1.5"/>
<path d="M73 38H77" stroke="black" stroke-width="1.5"/>
<path d="M105.688 45.128C104.835 45.128 104.045 44.9893 103.32 44.712C102.605 44.424 101.981 44.024 101.448 43.512C100.925 42.9893 100.515 42.3813 100.216 41.688C99.9173 40.9947 99.768 40.232 99.768 39.4C99.768 38.568 99.9173 37.8053 100.216 37.112C100.515 36.4187 100.931 35.816 101.464 35.304C101.997 34.7813 102.621 34.3813 103.336 34.104C104.061 33.816 104.851 33.672 105.704 33.672C106.568 33.672 107.363 33.8213 108.088 34.12C108.824 34.408 109.448 34.84 109.96 35.416L108.92 36.424C108.493 35.976 108.013 35.6453 107.48 35.432C106.947 35.208 106.376 35.096 105.768 35.096C105.139 35.096 104.552 35.2027 104.008 35.416C103.475 35.6293 103.011 35.928 102.616 36.312C102.221 36.696 101.912 37.1547 101.688 37.688C101.475 38.2107 101.368 38.7813 101.368 39.4C101.368 40.0187 101.475 40.5947 101.688 41.128C101.912 41.6507 102.221 42.104 102.616 42.488C103.011 42.872 103.475 43.1707 104.008 43.384C104.552 43.5973 105.139 43.704 105.768 43.704C106.376 43.704 106.947 43.5973 107.48 43.384C108.013 43.16 108.493 42.8187 108.92 42.36L109.96 43.368C109.448 43.944 108.824 44.3813 108.088 44.68C107.363 44.9787 106.563 45.128 105.688 45.128ZM117.064 45.128C116.211 45.128 115.416 44.984 114.68 44.696C113.955 44.408 113.325 44.008 112.792 43.496C112.259 42.9733 111.843 42.3653 111.544 41.672C111.245 40.9787 111.096 40.2213 111.096 39.4C111.096 38.5787 111.245 37.8213 111.544 37.128C111.843 36.4347 112.259 35.832 112.792 35.32C113.325 34.7973 113.955 34.392 114.68 34.104C115.405 33.816 116.2 33.672 117.064 33.672C117.917 33.672 118.701 33.816 119.416 34.104C120.141 34.3813 120.771 34.7813 121.304 35.304C121.848 35.816 122.264 36.4187 122.552 37.112C122.851 37.8053 123 38.568 123 39.4C123 40.232 122.851 40.9947 122.552 41.688C122.264 42.3813 121.848 42.9893 121.304 43.512C120.771 44.024 120.141 44.424 119.416 44.712C118.701 44.9893 117.917 45.128 117.064 45.128ZM117.064 43.704C117.683 43.704 118.253 43.5973 118.776 43.384C119.309 43.1707 119.768 42.872 120.152 42.488C120.547 42.0933 120.851 41.6347 121.064 41.112C121.288 40.5893 121.4 40.0187 121.4 39.4C121.4 38.7813 121.288 38.2107 121.064 37.688C120.851 37.1653 120.547 36.712 120.152 36.328C119.768 35.9333 119.309 35.6293 118.776 35.416C118.253 35.2027 117.683 35.096 117.064 35.096C116.435 35.096 115.853 35.2027 115.32 35.416C114.797 35.6293 114.339 35.9333 113.944 36.328C113.549 36.712 113.24 37.1653 113.016 37.688C112.803 38.2107 112.696 38.7813 112.696 39.4C112.696 40.0187 112.803 40.5893 113.016 41.112C113.24 41.6347 113.549 42.0933 113.944 42.488C114.339 42.872 114.797 43.1707 115.32 43.384C115.853 43.5973 116.435 43.704 117.064 43.704ZM125.446 45V33.8H126.758L131.782 42.264H131.078L136.038 33.8H137.35L137.366 45H135.83L135.814 36.216H136.182L131.766 43.64H131.03L126.582 36.216H126.982V45H125.446ZM140.727 45V33.8H145.095C146.076 33.8 146.914 33.9547 147.607 34.264C148.3 34.5733 148.834 35.0213 149.207 35.608C149.58 36.1947 149.767 36.8933 149.767 37.704C149.767 38.5147 149.58 39.2133 149.207 39.8C148.834 40.376 148.3 40.824 147.607 41.144C146.914 41.4533 146.076 41.608 145.095 41.608H141.607L142.327 40.856V45H140.727ZM142.327 41.016L141.607 40.216H145.047C146.071 40.216 146.844 39.9973 147.367 39.56C147.9 39.1227 148.167 38.504 148.167 37.704C148.167 36.904 147.9 36.2853 147.367 35.848C146.844 35.4107 146.071 35.192 145.047 35.192H141.607L142.327 34.392V41.016ZM152.118 45V33.8H156.486C157.467 33.8 158.304 33.9547 158.998 34.264C159.691 34.5733 160.224 35.0213 160.598 35.608C160.971 36.1947 161.158 36.8933 161.158 37.704C161.158 38.5147 160.971 39.2133 160.598 39.8C160.224 40.376 159.691 40.8187 158.998 41.128C158.304 41.4373 157.467 41.592 156.486 41.592H152.998L153.718 40.856V45H152.118ZM159.606 45L156.758 40.936H158.47L161.35 45H159.606ZM153.718 41.016L152.998 40.232H156.438C157.462 40.232 158.235 40.0133 158.758 39.576C159.291 39.128 159.558 38.504 159.558 37.704C159.558 36.904 159.291 36.2853 158.758 35.848C158.235 35.4107 157.462 35.192 156.438 35.192H152.998L153.718 34.392V41.016ZM162.046 45L167.119 33.8H168.703L173.791 45H172.111L167.583 34.696H168.223L163.695 45H162.046ZM164.207 42.2L164.639 40.92H170.943L171.407 42.2H164.207ZM175.461 45V33.8H179.829C180.811 33.8 181.648 33.9547 182.341 34.264C183.035 34.5733 183.568 35.0213 183.941 35.608C184.315 36.1947 184.501 36.8933 184.501 37.704C184.501 38.5147 184.315 39.2133 183.941 39.8C183.568 40.376 183.035 40.8187 182.341 41.128C181.648 41.4373 180.811 41.592 179.829 41.592H176.341L177.061 40.856V45H175.461ZM182.949 45L180.101 40.936H181.813L184.693 45H182.949ZM177.061 41.016L176.341 40.232H179.781C180.805 40.232 181.579 40.0133 182.101 39.576C182.635 39.128 182.901 38.504 182.901 37.704C182.901 36.904 182.635 36.2853 182.101 35.848C181.579 35.4107 180.805 35.192 179.781 35.192H176.341L177.061 34.392V41.016ZM189.687 45L194.759 33.8H196.343L201.431 45H199.751L195.223 34.696H195.863L191.335 45H189.687ZM191.847 42.2L192.279 40.92H198.583L199.047 42.2H191.847ZM208.002 45.128C207.138 45.128 206.343 44.9893 205.618 44.712C204.892 44.424 204.263 44.024 203.73 43.512C203.196 42.9893 202.78 42.3813 202.482 41.688C202.183 40.9947 202.034 40.232 202.034 39.4C202.034 38.568 202.183 37.8053 202.482 37.112C202.78 36.4187 203.196 35.816 203.73 35.304C204.274 34.7813 204.908 34.3813 205.634 34.104C206.359 33.816 207.159 33.672 208.034 33.672C208.919 33.672 209.73 33.816 210.466 34.104C211.202 34.392 211.826 34.824 212.338 35.4L211.346 36.392C210.887 35.944 210.386 35.6187 209.842 35.416C209.308 35.2027 208.727 35.096 208.098 35.096C207.458 35.096 206.86 35.2027 206.306 35.416C205.762 35.6293 205.287 35.928 204.882 36.312C204.487 36.696 204.178 37.1547 203.954 37.688C203.74 38.2107 203.634 38.7813 203.634 39.4C203.634 40.008 203.74 40.5787 203.954 41.112C204.178 41.6347 204.487 42.0933 204.882 42.488C205.287 42.872 205.762 43.1707 206.306 43.384C206.85 43.5973 207.442 43.704 208.082 43.704C208.679 43.704 209.25 43.6133 209.794 43.432C210.348 43.24 210.86 42.9253 211.33 42.488L212.242 43.704C211.687 44.1733 211.036 44.5307 210.29 44.776C209.554 45.0107 208.791 45.128 208.002 45.128ZM210.706 43.496V39.336H212.242V43.704L210.706 43.496ZM220.361 45.128C219.508 45.128 218.713 44.984 217.977 44.696C217.252 44.408 216.622 44.008 216.089 43.496C215.556 42.9733 215.14 42.3653 214.841 41.672C214.542 40.9787 214.393 40.2213 214.393 39.4C214.393 38.5787 214.542 37.8213 214.841 37.128C215.14 36.4347 215.556 35.832 216.089 35.32C216.622 34.7973 217.252 34.392 217.977 34.104C218.702 33.816 219.497 33.672 220.361 33.672C221.214 33.672 221.998 33.816 222.713 34.104C223.438 34.3813 224.068 34.7813 224.601 35.304C225.145 35.816 225.561 36.4187 225.849 37.112C226.148 37.8053 226.297 38.568 226.297 39.4C226.297 40.232 226.148 40.9947 225.849 41.688C225.561 42.3813 225.145 42.9893 224.601 43.512C224.068 44.024 223.438 44.424 222.713 44.712C221.998 44.9893 221.214 45.128 220.361 45.128ZM220.361 43.704C220.98 43.704 221.55 43.5973 222.073 43.384C222.606 43.1707 223.065 42.872 223.449 42.488C223.844 42.0933 224.148 41.6347 224.361 41.112C224.585 40.5893 224.697 40.0187 224.697 39.4C224.697 38.7813 224.585 38.2107 224.361 37.688C224.148 37.1653 223.844 36.712 223.449 36.328C223.065 35.9333 222.606 35.6293 222.073 35.416C221.55 35.2027 220.98 35.096 220.361 35.096C219.732 35.096 219.15 35.2027 218.617 35.416C218.094 35.6293 217.636 35.9333 217.241 36.328C216.846 36.712 216.537 37.1653 216.313 37.688C216.1 38.2107 215.993 38.7813 215.993 39.4C215.993 40.0187 216.1 40.5893 216.313 41.112C216.537 41.6347 216.846 42.0933 217.241 42.488C217.636 42.872 218.094 43.1707 218.617 43.384C219.15 43.5973 219.732 43.704 220.361 43.704ZM228.743 45V33.8H233.111C234.092 33.8 234.929 33.9547 235.623 34.264C236.316 34.5733 236.849 35.0213 237.223 35.608C237.596 36.1947 237.783 36.8933 237.783 37.704C237.783 38.5147 237.596 39.2133 237.223 39.8C236.849 40.376 236.316 40.8187 235.623 41.128C234.929 41.4373 234.092 41.592 233.111 41.592H229.623L230.343 40.856V45H228.743ZM236.231 45L233.383 40.936H235.095L237.975 45H236.231ZM230.343 41.016L229.623 40.232H233.063C234.087 40.232 234.86 40.0133 235.383 39.576C235.916 39.128 236.183 38.504 236.183 37.704C236.183 36.904 235.916 36.2853 235.383 35.848C234.86 35.4107 234.087 35.192 233.063 35.192H229.623L230.343 34.392V41.016ZM238.671 45L243.744 33.8H245.328L250.416 45H248.736L244.208 34.696H244.848L240.32 45H238.671ZM240.832 42.2L241.264 40.92H247.568L248.032 42.2H240.832Z" fill="black"/>
</g>
<defs>
<filter id="filter0_dddd_3119_2119" x="0" y="0" width="314" height="126" filterUnits="userSpaceOnUse" color-interpolation-filters="sRGB">
<feFlood flood-opacity="0" result="BackgroundImageFix"/>
<feColorMatrix in="SourceAlpha" type="matrix" values="0 0 0 0 0 0 0 0 0 0 0 0 0 0 0 0 0 0 127 0" result="hardAlpha"/>
<feOffset dy="2"/>
<feGaussianBlur stdDeviation="2.5"/>
<feColorMatrix type="matrix" values="0 0 0 0 0 0 0 0 0 0 0 0 0 0 0 0 0 0 0.1 0"/>
<feBlend mode="normal" in2="BackgroundImageFix" result="effect1_dropShadow_3119_2119"/>
<feColorMatrix in="SourceAlpha" type="matrix" values="0 0 0 0 0 0 0 0 0 0 0 0 0 0 0 0 0 0 127 0" result="hardAlpha"/>
<feOffset dy="9"/>
<feGaussianBlur stdDeviation="4.5"/>
<feColorMatrix type="matrix" values="0 0 0 0 0 0 0 0 0 0 0 0 0 0 0 0 0 0 0.09 0"/>
<feBlend mode="normal" in2="effect1_dropShadow_3119_2119" result="effect2_dropShadow_3119_2119"/>
<feColorMatrix in="SourceAlpha" type="matrix" values="0 0 0 0 0 0 0 0 0 0 0 0 0 0 0 0 0 0 127 0" result="hardAlpha"/>
<feOffset dy="20"/>
<feGaussianBlur stdDeviation="6"/>
<feColorMatrix type="matrix" values="0 0 0 0 0 0 0 0 0 0 0 0 0 0 0 0 0 0 0.05 0"/>
<feBlend mode="normal" in2="effect2_dropShadow_3119_2119" result="effect3_dropShadow_3119_2119"/>
<feColorMatrix in="SourceAlpha" type="matrix" values="0 0 0 0 0 0 0 0 0 0 0 0 0 0 0 0 0 0 127 0" result="hardAlpha"/>
<feOffset dy="36"/>
<feGaussianBlur stdDeviation="7.5"/>
<feColorMatrix type="matrix" values="0 0 0 0 0 0 0 0 0 0 0 0 0 0 0 0 0 0 0.01 0"/>
<feBlend mode="normal" in2="effect3_dropShadow_3119_2119" result="effect4_dropShadow_3119_2119"/>
<feBlend mode="normal" in="SourceGraphic" in2="effect4_dropShadow_3119_2119" result="shape"/>
</filter>
</defs>
</svg>
