<svg width="394" height="152" viewBox="0 0 394 152" fill="none" xmlns="http://www.w3.org/2000/svg">
<g filter="url(#filter0_dddd_3119_2121)">
<rect x="40.8999" y="8" width="312.2" height="79.2" rx="39.6" fill="#FFCD1E"/>
<path d="M101.95 42.65V41.4C101.95 38.749 104.166 36.6 106.9 36.6C109.634 36.6 111.85 38.749 111.85 41.4V42.65" stroke="black" stroke-width="1.65"/>
<path d="M96.6738 54.8737C96.1168 53.4332 96.6496 51.5759 97.7151 47.8611L99.2 42.65H114.6L116.085 47.8611C117.15 51.5759 117.683 53.4332 117.126 54.8737C116.785 55.7558 116.179 56.5207 115.386 57.0715C112.385 59.1548 101.284 59.0638 98.414 57.0715C97.6205 56.5207 97.0149 55.7558 96.6738 54.8737Z" stroke="black" stroke-width="1.65"/>
<path d="M104.7 46.5H109.1" stroke="black" stroke-width="1.65"/>
<path d="M140.657 53.7408C139.718 53.7408 138.85 53.5882 138.052 53.2832C137.266 52.9664 136.579 52.5264 135.993 51.9632C135.418 51.3882 134.966 50.7194 134.637 49.9568C134.309 49.1941 134.145 48.3552 134.145 47.44C134.145 46.5248 134.309 45.6858 134.637 44.9232C134.966 44.1605 135.424 43.4976 136.01 42.9344C136.597 42.3594 137.283 41.9194 138.069 41.6144C138.867 41.2976 139.736 41.1392 140.674 41.1392C141.625 41.1392 142.499 41.3034 143.297 41.632C144.106 41.9488 144.793 42.424 145.356 43.0576L144.212 44.1664C143.742 43.6736 143.214 43.3098 142.628 43.0752C142.041 42.8288 141.413 42.7056 140.745 42.7056C140.052 42.7056 139.407 42.8229 138.809 43.0576C138.222 43.2922 137.712 43.6208 137.277 44.0432C136.843 44.4656 136.503 44.9701 136.257 45.5568C136.022 46.1317 135.905 46.7594 135.905 47.44C135.905 48.1205 136.022 48.7541 136.257 49.3408C136.503 49.9157 136.843 50.4144 137.277 50.8368C137.712 51.2592 138.222 51.5877 138.809 51.8224C139.407 52.057 140.052 52.1744 140.745 52.1744C141.413 52.1744 142.041 52.057 142.628 51.8224C143.214 51.576 143.742 51.2005 144.212 50.696L145.356 51.8048C144.793 52.4384 144.106 52.9194 143.297 53.248C142.499 53.5765 141.619 53.7408 140.657 53.7408ZM153.17 53.7408C152.232 53.7408 151.358 53.5824 150.548 53.2656C149.75 52.9488 149.058 52.5088 148.471 51.9456C147.884 51.3706 147.427 50.7018 147.098 49.9392C146.77 49.1765 146.606 48.3434 146.606 47.44C146.606 46.5365 146.77 45.7034 147.098 44.9408C147.427 44.1781 147.884 43.5152 148.471 42.952C149.058 42.377 149.75 41.9312 150.548 41.6144C151.346 41.2976 152.22 41.1392 153.17 41.1392C154.109 41.1392 154.971 41.2976 155.758 41.6144C156.555 41.9194 157.248 42.3594 157.834 42.9344C158.433 43.4976 158.89 44.1605 159.207 44.9232C159.536 45.6858 159.7 46.5248 159.7 47.44C159.7 48.3552 159.536 49.1941 159.207 49.9568C158.89 50.7194 158.433 51.3882 157.834 51.9632C157.248 52.5264 156.555 52.9664 155.758 53.2832C154.971 53.5882 154.109 53.7408 153.17 53.7408ZM153.17 52.1744C153.851 52.1744 154.479 52.057 155.054 51.8224C155.64 51.5877 156.145 51.2592 156.567 50.8368C157.001 50.4026 157.336 49.8981 157.57 49.3232C157.817 48.7482 157.94 48.1205 157.94 47.44C157.94 46.7594 157.817 46.1317 157.57 45.5568C157.336 44.9818 157.001 44.4832 156.567 44.0608C156.145 43.6266 155.64 43.2922 155.054 43.0576C154.479 42.8229 153.851 42.7056 153.17 42.7056C152.478 42.7056 151.839 42.8229 151.252 43.0576C150.677 43.2922 150.172 43.6266 149.738 44.0608C149.304 44.4832 148.964 44.9818 148.718 45.5568C148.483 46.1317 148.366 46.7594 148.366 47.44C148.366 48.1205 148.483 48.7482 148.718 49.3232C148.964 49.8981 149.304 50.4026 149.738 50.8368C150.172 51.2592 150.677 51.5877 151.252 51.8224C151.839 52.057 152.478 52.1744 153.17 52.1744ZM162.39 53.6V41.28H163.833L169.36 50.5904H168.585L174.041 41.28H175.484L175.502 53.6H173.812L173.795 43.9376H174.2L169.342 52.104H168.532L163.64 43.9376H164.08V53.6H162.39ZM179.199 53.6V41.28H184.004C185.084 41.28 186.005 41.4501 186.767 41.7904C187.53 42.1306 188.117 42.6234 188.527 43.2688C188.938 43.9141 189.143 44.6826 189.143 45.5744C189.143 46.4661 188.938 47.2346 188.527 47.88C188.117 48.5136 187.53 49.0064 186.767 49.3584C186.005 49.6986 185.084 49.8688 184.004 49.8688H180.167L180.959 49.0416V53.6H179.199ZM180.959 49.2176L180.167 48.3376H183.951C185.078 48.3376 185.928 48.097 186.503 47.616C187.09 47.1349 187.383 46.4544 187.383 45.5744C187.383 44.6944 187.09 44.0138 186.503 43.5328C185.928 43.0517 185.078 42.8112 183.951 42.8112H180.167L180.959 41.9312V49.2176ZM191.729 53.6V41.28H196.534C197.613 41.28 198.534 41.4501 199.297 41.7904C200.06 42.1306 200.646 42.6234 201.057 43.2688C201.468 43.9141 201.673 44.6826 201.673 45.5744C201.673 46.4661 201.468 47.2346 201.057 47.88C200.646 48.5136 200.06 49.0005 199.297 49.3408C198.534 49.681 197.613 49.8512 196.534 49.8512H192.697L193.489 49.0416V53.6H191.729ZM199.966 53.6L196.833 49.1296H198.716L201.884 53.6H199.966ZM193.489 49.2176L192.697 48.3552H196.481C197.607 48.3552 198.458 48.1146 199.033 47.6336C199.62 47.1408 199.913 46.4544 199.913 45.5744C199.913 44.6944 199.62 44.0138 199.033 43.5328C198.458 43.0517 197.607 42.8112 196.481 42.8112H192.697L193.489 41.9312V49.2176ZM202.651 53.6L208.23 41.28H209.973L215.569 53.6H213.721L208.741 42.2656H209.445L204.464 53.6H202.651ZM205.027 50.52L205.502 49.112H212.437L212.947 50.52H205.027ZM217.407 53.6V41.28H222.212C223.291 41.28 224.213 41.4501 224.975 41.7904C225.738 42.1306 226.325 42.6234 226.735 43.2688C227.146 43.9141 227.351 44.6826 227.351 45.5744C227.351 46.4661 227.146 47.2346 226.735 47.88C226.325 48.5136 225.738 49.0005 224.975 49.3408C224.213 49.681 223.291 49.8512 222.212 49.8512H218.375L219.167 49.0416V53.6H217.407ZM225.644 53.6L222.511 49.1296H224.394L227.562 53.6H225.644ZM219.167 49.2176L218.375 48.3552H222.159C223.286 48.3552 224.136 48.1146 224.711 47.6336C225.298 47.1408 225.591 46.4544 225.591 45.5744C225.591 44.6944 225.298 44.0138 224.711 43.5328C224.136 43.0517 223.286 42.8112 222.159 42.8112H218.375L219.167 41.9312V49.2176ZM233.056 53.6L238.635 41.28H240.377L245.974 53.6H244.126L239.145 42.2656H239.849L234.868 53.6H233.056ZM235.432 50.52L235.907 49.112H242.841L243.352 50.52H235.432ZM253.202 53.7408C252.251 53.7408 251.377 53.5882 250.579 53.2832C249.781 52.9664 249.089 52.5264 248.502 51.9632C247.916 51.3882 247.458 50.7194 247.13 49.9568C246.801 49.1941 246.637 48.3552 246.637 47.44C246.637 46.5248 246.801 45.6858 247.13 44.9232C247.458 44.1605 247.916 43.4976 248.502 42.9344C249.101 42.3594 249.799 41.9194 250.597 41.6144C251.395 41.2976 252.275 41.1392 253.237 41.1392C254.211 41.1392 255.102 41.2976 255.912 41.6144C256.722 41.9312 257.408 42.4064 257.971 43.04L256.88 44.1312C256.375 43.6384 255.824 43.2805 255.226 43.0576C254.639 42.8229 253.999 42.7056 253.307 42.7056C252.603 42.7056 251.946 42.8229 251.336 43.0576C250.738 43.2922 250.215 43.6208 249.77 44.0432C249.335 44.4656 248.995 44.9701 248.749 45.5568C248.514 46.1317 248.397 46.7594 248.397 47.44C248.397 48.1088 248.514 48.7365 248.749 49.3232C248.995 49.8981 249.335 50.4026 249.77 50.8368C250.215 51.2592 250.738 51.5877 251.336 51.8224C251.934 52.057 252.586 52.1744 253.29 52.1744C253.947 52.1744 254.574 52.0746 255.173 51.8752C255.783 51.664 256.346 51.3178 256.862 50.8368L257.866 52.1744C257.255 52.6906 256.54 53.0837 255.718 53.3536C254.909 53.6117 254.07 53.7408 253.202 53.7408ZM256.176 51.9456V47.3696H257.866V52.1744L256.176 51.9456ZM266.797 53.7408C265.858 53.7408 264.984 53.5824 264.175 53.2656C263.377 52.9488 262.684 52.5088 262.098 51.9456C261.511 51.3706 261.053 50.7018 260.725 49.9392C260.396 49.1765 260.232 48.3434 260.232 47.44C260.232 46.5365 260.396 45.7034 260.725 44.9408C261.053 44.1781 261.511 43.5152 262.098 42.952C262.684 42.377 263.377 41.9312 264.175 41.6144C264.972 41.2976 265.847 41.1392 266.797 41.1392C267.736 41.1392 268.598 41.2976 269.384 41.6144C270.182 41.9194 270.874 42.3594 271.461 42.9344C272.059 43.4976 272.517 44.1605 272.834 44.9232C273.162 45.6858 273.327 46.5248 273.327 47.44C273.327 48.3552 273.162 49.1941 272.834 49.9568C272.517 50.7194 272.059 51.3882 271.461 51.9632C270.874 52.5264 270.182 52.9664 269.384 53.2832C268.598 53.5882 267.736 53.7408 266.797 53.7408ZM266.797 52.1744C267.477 52.1744 268.105 52.057 268.68 51.8224C269.267 51.5877 269.771 51.2592 270.194 50.8368C270.628 50.4026 270.962 49.8981 271.197 49.3232C271.443 48.7482 271.567 48.1205 271.567 47.44C271.567 46.7594 271.443 46.1317 271.197 45.5568C270.962 44.9818 270.628 44.4832 270.194 44.0608C269.771 43.6266 269.267 43.2922 268.68 43.0576C268.105 42.8229 267.477 42.7056 266.797 42.7056C266.105 42.7056 265.465 42.8229 264.879 43.0576C264.304 43.2922 263.799 43.6266 263.365 44.0608C262.931 44.4832 262.591 44.9818 262.344 45.5568C262.109 46.1317 261.992 46.7594 261.992 47.44C261.992 48.1205 262.109 48.7482 262.344 49.3232C262.591 49.8981 262.931 50.4026 263.365 50.8368C263.799 51.2592 264.304 51.5877 264.879 51.8224C265.465 52.057 266.105 52.1744 266.797 52.1744ZM276.017 53.6V41.28H280.821C281.901 41.28 282.822 41.4501 283.585 41.7904C284.347 42.1306 284.934 42.6234 285.345 43.2688C285.755 43.9141 285.961 44.6826 285.961 45.5744C285.961 46.4661 285.755 47.2346 285.345 47.88C284.934 48.5136 284.347 49.0005 283.585 49.3408C282.822 49.681 281.901 49.8512 280.821 49.8512H276.985L277.777 49.0416V53.6H276.017ZM284.253 53.6L281.121 49.1296H283.004L286.172 53.6H284.253ZM277.777 49.2176L276.985 48.3552H280.769C281.895 48.3552 282.746 48.1146 283.321 47.6336C283.907 47.1408 284.201 46.4544 284.201 45.5744C284.201 44.6944 283.907 44.0138 283.321 43.5328C282.746 43.0517 281.895 42.8112 280.769 42.8112H276.985L277.777 41.9312V49.2176ZM286.938 53.6L292.518 41.28H294.26L299.857 53.6H298.009L293.028 42.2656H293.732L288.751 53.6H286.938ZM289.314 50.52L289.79 49.112H296.724L297.234 50.52H289.314Z" fill="black"/>
</g>
<defs>
<filter id="filter0_dddd_3119_2121" x="0.899902" y="0" width="392.2" height="227.2" filterUnits="userSpaceOnUse" color-interpolation-filters="sRGB">
<feFlood flood-opacity="0" result="BackgroundImageFix"/>
<feColorMatrix in="SourceAlpha" type="matrix" values="0 0 0 0 0 0 0 0 0 0 0 0 0 0 0 0 0 0 127 0" result="hardAlpha"/>
<feOffset dy="6"/>
<feGaussianBlur stdDeviation="7"/>
<feColorMatrix type="matrix" values="0 0 0 0 0 0 0 0 0 0 0 0 0 0 0 0 0 0 0.1 0"/>
<feBlend mode="normal" in2="BackgroundImageFix" result="effect1_dropShadow_3119_2121"/>
<feColorMatrix in="SourceAlpha" type="matrix" values="0 0 0 0 0 0 0 0 0 0 0 0 0 0 0 0 0 0 127 0" result="hardAlpha"/>
<feOffset dy="25"/>
<feGaussianBlur stdDeviation="12.5"/>
<feColorMatrix type="matrix" values="0 0 0 0 0 0 0 0 0 0 0 0 0 0 0 0 0 0 0.09 0"/>
<feBlend mode="normal" in2="effect1_dropShadow_3119_2121" result="effect2_dropShadow_3119_2121"/>
<feColorMatrix in="SourceAlpha" type="matrix" values="0 0 0 0 0 0 0 0 0 0 0 0 0 0 0 0 0 0 127 0" result="hardAlpha"/>
<feOffset dy="56"/>
<feGaussianBlur stdDeviation="17"/>
<feColorMatrix type="matrix" values="0 0 0 0 0 0 0 0 0 0 0 0 0 0 0 0 0 0 0.05 0"/>
<feBlend mode="normal" in2="effect2_dropShadow_3119_2121" result="effect3_dropShadow_3119_2121"/>
<feColorMatrix in="SourceAlpha" type="matrix" values="0 0 0 0 0 0 0 0 0 0 0 0 0 0 0 0 0 0 127 0" result="hardAlpha"/>
<feOffset dy="100"/>
<feGaussianBlur stdDeviation="20"/>
<feColorMatrix type="matrix" values="0 0 0 0 0 0 0 0 0 0 0 0 0 0 0 0 0 0 0.01 0"/>
<feBlend mode="normal" in2="effect3_dropShadow_3119_2121" result="effect4_dropShadow_3119_2121"/>
<feBlend mode="normal" in="SourceGraphic" in2="effect4_dropShadow_3119_2121" result="shape"/>
</filter>
</defs>
</svg>
